<svg xmlns="http://www.w3.org/2000/svg" width="339.88" height="35" viewBox="0 0 339.88 35"><rect class="svg__rect" x="0" y="0" width="172.88" height="35" fill="#005384"/><rect class="svg__rect" x="170.88" y="0" width="169" height="35" fill="#389AD5"/><path class="svg__text" d="M15.78 22L14.31 22L14.31 13.47L15.78 13.47L15.78 22ZM22.27 14.66L19.64 14.66L19.64 13.47L26.40 13.47L26.40 14.66L23.74 14.66L23.74 22L22.27 22L22.27 14.66ZM29.73 19.42L29.73 19.42L31.21 19.42Q31.21 20.15 31.69 20.55Q32.17 20.95 33.07 20.95L33.07 20.95Q33.84 20.95 34.23 20.63Q34.62 20.32 34.62 19.80L34.62 19.80Q34.62 19.24 34.22 18.94Q33.83 18.63 32.80 18.32Q31.77 18.01 31.16 17.63L31.16 17.63Q29.99 16.90 29.99 15.72L29.99 15.72Q29.99 14.69 30.83 14.02Q31.67 13.35 33.01 13.35L33.01 13.35Q33.90 13.35 34.60 13.68Q35.30 14.01 35.70 14.61Q36.10 15.22 36.10 15.96L36.10 15.96L34.62 15.96Q34.62 15.29 34.20 14.91Q33.78 14.54 33.00 14.54L33.00 14.54Q32.28 14.54 31.87 14.85Q31.47 15.16 31.47 15.71L31.47 15.71Q31.47 16.18 31.91 16.50Q32.34 16.81 33.34 17.10Q34.33 17.40 34.94 17.78Q35.54 18.16 35.82 18.65Q36.10 19.13 36.10 19.79L36.10 19.79Q36.10 20.86 35.28 21.49Q34.47 22.12 33.07 22.12L33.07 22.12Q32.14 22.12 31.36 21.77Q30.59 21.43 30.16 20.83Q29.73 20.22 29.73 19.42ZM47.85 22L46.37 22L46.37 13.47L47.85 13.47L51.66 19.54L51.66 13.47L53.14 13.47L53.14 22L51.65 22L47.85 15.95L47.85 22ZM57.61 18.00L57.61 18.00L57.61 17.52Q57.61 16.28 58.05 15.32Q58.49 14.37 59.30 13.86Q60.10 13.35 61.14 13.35Q62.19 13.35 62.99 13.85Q63.80 14.35 64.24 15.29Q64.68 16.23 64.68 17.48L64.68 17.48L64.68 17.96Q64.68 19.21 64.25 20.16Q63.82 21.10 63.01 21.61Q62.21 22.12 61.16 22.12L61.16 22.12Q60.12 22.12 59.31 21.61Q58.50 21.10 58.05 20.17Q57.61 19.23 57.61 18.00ZM59.09 17.46L59.09 17.96Q59.09 19.36 59.64 20.13Q60.18 20.90 61.16 20.90L61.16 20.90Q62.14 20.90 62.67 20.15Q63.20 19.40 63.20 17.96L63.20 17.96L63.20 17.51Q63.20 16.09 62.67 15.34Q62.13 14.58 61.14 14.58L61.14 14.58Q60.18 14.58 59.64 15.33Q59.10 16.09 59.09 17.46L59.09 17.46ZM70.83 14.66L68.19 14.66L68.19 13.47L74.96 13.47L74.96 14.66L72.30 14.66L72.30 22L70.83 22L70.83 14.66ZM90.05 22L84.69 22L84.69 13.47L86.18 13.47L86.18 20.82L90.05 20.82L90.05 22ZM94.95 22L93.41 22L96.64 13.47L97.97 13.47L101.19 22L99.65 22L98.95 20.01L95.64 20.01L94.95 22ZM97.30 15.28L96.06 18.82L98.53 18.82L97.30 15.28ZM111.10 22L104.75 22L104.75 21.04L109.16 14.66L104.78 14.66L104.78 13.47L110.96 13.47L110.96 14.41L106.54 20.82L111.10 20.82L111.10 22ZM116.93 22L115.45 22L115.45 13.47L116.93 13.47L116.93 22ZM123.22 22L121.74 22L121.74 13.47L123.22 13.47L127.03 19.54L127.03 13.47L128.50 13.47L128.50 22L127.02 22L123.22 15.95L123.22 22ZM138.82 22L133.24 22L133.24 13.47L138.78 13.47L138.78 14.66L134.73 14.66L134.73 17.02L138.23 17.02L138.23 18.19L134.73 18.19L134.73 20.82L138.82 20.82L138.82 22ZM142.58 19.42L142.58 19.42L144.07 19.42Q144.07 20.15 144.55 20.55Q145.03 20.95 145.92 20.95L145.92 20.95Q146.70 20.95 147.09 20.63Q147.48 20.32 147.48 19.80L147.48 19.80Q147.48 19.24 147.08 18.94Q146.69 18.63 145.65 18.32Q144.62 18.01 144.01 17.63L144.01 17.63Q142.85 16.90 142.85 15.72L142.85 15.72Q142.85 14.69 143.69 14.02Q144.53 13.35 145.87 13.35L145.87 13.35Q146.76 13.35 147.46 13.68Q148.16 14.01 148.56 14.61Q148.95 15.22 148.95 15.96L148.95 15.96L147.48 15.96Q147.48 15.29 147.06 14.91Q146.64 14.54 145.86 14.54L145.86 14.54Q145.13 14.54 144.73 14.85Q144.33 15.16 144.33 15.71L144.33 15.71Q144.33 16.18 144.76 16.50Q145.20 16.81 146.19 17.10Q147.19 17.40 147.79 17.78Q148.40 18.16 148.68 18.65Q148.96 19.13 148.96 19.79L148.96 19.79Q148.96 20.86 148.14 21.49Q147.32 22.12 145.92 22.12L145.92 22.12Q145.00 22.12 144.22 21.77Q143.45 21.43 143.02 20.83Q142.58 20.22 142.58 19.42ZM152.81 19.42L152.81 19.42L154.30 19.42Q154.30 20.15 154.78 20.55Q155.26 20.95 156.15 20.95L156.15 20.95Q156.93 20.95 157.32 20.63Q157.71 20.32 157.71 19.80L157.71 19.80Q157.71 19.24 157.31 18.94Q156.92 18.63 155.89 18.32Q154.85 18.01 154.24 17.63L154.24 17.63Q153.08 16.90 153.08 15.72L153.08 15.72Q153.08 14.69 153.92 14.02Q154.76 13.35 156.10 13.35L156.10 13.35Q156.99 13.35 157.69 13.68Q158.39 14.01 158.79 14.61Q159.18 15.22 159.18 15.96L159.18 15.96L157.71 15.96Q157.71 15.29 157.29 14.91Q156.87 14.54 156.09 14.54L156.09 14.54Q155.36 14.54 154.96 14.85Q154.56 15.16 154.56 15.71L154.56 15.71Q154.56 16.18 154.99 16.50Q155.43 16.81 156.42 17.10Q157.42 17.40 158.02 17.78Q158.63 18.16 158.91 18.65Q159.19 19.13 159.19 19.79L159.19 19.79Q159.19 20.86 158.37 21.49Q157.56 22.12 156.15 22.12L156.15 22.12Q155.23 22.12 154.45 21.77Q153.68 21.43 153.25 20.83Q152.81 20.22 152.81 19.42Z" fill="#FFFFFF"/><path class="svg__text" d="M187.45 22L185.07 22L185.07 13.60L187.45 13.60L187.45 22ZM194.41 15.48L191.83 15.48L191.83 13.60L199.35 13.60L199.35 15.48L196.79 15.48L196.79 22L194.41 22L194.41 15.48ZM203.14 21.24L203.14 21.24L203.92 19.49Q204.48 19.86 205.22 20.09Q205.97 20.32 206.69 20.32L206.69 20.32Q208.05 20.32 208.06 19.64L208.06 19.64Q208.06 19.28 207.67 19.11Q207.28 18.93 206.41 18.74L206.41 18.74Q205.46 18.53 204.83 18.30Q204.19 18.06 203.74 17.55Q203.28 17.03 203.28 16.16L203.28 16.16Q203.28 15.39 203.70 14.77Q204.12 14.15 204.96 13.79Q205.79 13.43 207.00 13.43L207.00 13.43Q207.83 13.43 208.63 13.62Q209.44 13.80 210.05 14.17L210.05 14.17L209.32 15.93Q208.12 15.28 206.99 15.28L206.99 15.28Q206.28 15.28 205.96 15.49Q205.63 15.70 205.63 16.04L205.63 16.04Q205.63 16.37 206.02 16.54Q206.40 16.71 207.25 16.89L207.25 16.89Q208.21 17.10 208.84 17.33Q209.47 17.56 209.94 18.07Q210.40 18.58 210.40 19.46L210.40 19.46Q210.40 20.21 209.98 20.83Q209.56 21.44 208.72 21.80Q207.88 22.17 206.68 22.17L206.68 22.17Q205.66 22.17 204.70 21.92Q203.74 21.67 203.14 21.24ZM228.69 22L221.95 22L221.95 13.60L228.54 13.60L228.54 15.44L224.30 15.44L224.30 16.85L228.03 16.85L228.03 18.63L224.30 18.63L224.30 20.17L228.69 20.17L228.69 22ZM235.87 22L233.50 22L233.50 13.60L240.09 13.60L240.09 15.44L235.87 15.44L235.87 17.28L239.58 17.28L239.58 19.12L235.87 19.12L235.87 22ZM247.06 22L244.68 22L244.68 13.60L251.27 13.60L251.27 15.44L247.06 15.44L247.06 17.28L250.77 17.28L250.77 19.12L247.06 19.12L247.06 22ZM258.25 22L255.87 22L255.87 13.60L258.25 13.60L258.25 22ZM262.99 17.80L262.99 17.80Q262.99 16.54 263.59 15.54Q264.19 14.55 265.24 13.99Q266.29 13.43 267.61 13.43L267.61 13.43Q268.76 13.43 269.69 13.84Q270.61 14.25 271.22 15.02L271.22 15.02L269.71 16.39Q268.90 15.40 267.73 15.40L267.73 15.40Q267.05 15.40 266.51 15.70Q265.98 16 265.68 16.54Q265.39 17.09 265.39 17.80L265.39 17.80Q265.39 18.51 265.68 19.05Q265.98 19.60 266.51 19.90Q267.05 20.20 267.73 20.20L267.73 20.20Q268.90 20.20 269.71 19.22L269.71 19.22L271.22 20.58Q270.61 21.35 269.69 21.76Q268.76 22.17 267.61 22.17L267.61 22.17Q266.29 22.17 265.24 21.61Q264.19 21.05 263.59 20.05Q262.99 19.06 262.99 17.80ZM278.14 22L275.76 22L275.76 13.60L278.14 13.60L278.14 22ZM290.06 22L283.31 22L283.31 13.60L289.90 13.60L289.90 15.44L285.67 15.44L285.67 16.85L289.40 16.85L289.40 18.63L285.67 18.63L285.67 20.17L290.06 20.17L290.06 22ZM297.19 22L294.86 22L294.86 13.60L296.82 13.60L300.53 18.07L300.53 13.60L302.85 13.60L302.85 22L300.90 22L297.19 17.52L297.19 22ZM307.59 17.80L307.59 17.80Q307.59 16.54 308.19 15.54Q308.78 14.55 309.83 13.99Q310.89 13.43 312.20 13.43L312.20 13.43Q313.36 13.43 314.28 13.84Q315.20 14.25 315.82 15.02L315.82 15.02L314.31 16.39Q313.49 15.40 312.33 15.40L312.33 15.40Q311.64 15.40 311.11 15.70Q310.58 16 310.28 16.54Q309.98 17.09 309.98 17.80L309.98 17.80Q309.98 18.51 310.28 19.05Q310.58 19.60 311.11 19.90Q311.64 20.20 312.33 20.20L312.33 20.20Q313.49 20.20 314.31 19.22L314.31 19.22L315.82 20.58Q315.21 21.35 314.28 21.76Q313.36 22.17 312.20 22.17L312.20 22.17Q310.89 22.17 309.83 21.61Q308.78 21.05 308.19 20.05Q307.59 19.06 307.59 17.80ZM322.48 18.95L319.28 13.60L321.78 13.60L323.78 16.94L325.77 13.60L328.07 13.60L324.86 18.99L324.86 22L322.48 22L322.48 18.95Z" fill="#FFFFFF" x="183.88"/></svg>